<?xml version="1.0" encoding="utf-8"?>
<!-- Generator: Adobe Illustrator 19.0.0, SVG Export Plug-In . SVG Version: 6.00 Build 0)  -->
<svg version="1.1" id="Layer_1" xmlns="http://www.w3.org/2000/svg" xmlns:xlink="http://www.w3.org/1999/xlink" x="0px" y="0px"
	 viewBox="0 0 100 100" style="enable-background:new 0 0 100 100;" xml:space="preserve">
<style type="text/css">
	.st0{fill:#FFCB39;stroke:#1C1029;stroke-width:3;stroke-miterlimit:10;}
	.st1{fill:#F0F1F3;}
	.st2{fill:#1B0F28;}
	.st3{fill:#FFFFFF;}
	.st4{fill:#0A0908;}
	.st5{fill:#FFCB39;}
	.st6{fill:#1C1029;}
</style>
<g id="XMLID_1_">
	<rect id="XMLID_2_" x="5.5" y="37.7" class="st0" width="24.5" height="24.5"/>
	<polygon id="XMLID_6_" class="st1" points="14.3,53.4 14.3,49.9 5.5,49.9 5.5,62.2 17.7,62.2 17.7,53.4 	"/>
	<polygon id="XMLID_12_" class="st1" points="17.7,37.7 17.7,46.5 21.2,46.5 21.2,49.9 30,49.9 30,37.7 	"/>
	<polygon id="XMLID_4_" class="st2" points="21.2,49.9 21.2,53.4 17.7,53.4 17.7,62.2 30,62.2 30,49.9 	"/>
	<polygon id="XMLID_14_" class="st2" points="14.3,46.5 17.7,46.5 17.7,37.7 5.5,37.7 5.5,49.9 14.3,49.9 	"/>
	<g id="XMLID_10_">
		<path id="XMLID_13_" class="st3" d="M10.1,41.8h2.4v0.6h-0.8v2.2h-0.7v-2.2h-0.8V41.8z"/>
	</g>
	<g id="XMLID_3_">
		<g id="XMLID_69_">
			<path id="XMLID_70_" class="st3" d="M23.7,55.2h0.7v2.2h1.2V58h-1.9V55.2z"/>
		</g>
	</g>
	<g id="XMLID_8_">
		<path id="XMLID_9_" class="st4" d="M19.3,48.7H20l-1,2.8h-0.8l-0.5-1.9l-0.5,1.9h-0.8l-1-2.8h0.8l0.6,2.1l0.6-2.1h0.7l0.6,2.1
			L19.3,48.7z"/>
	</g>
	<g id="XMLID_25_">
		<path id="XMLID_26_" class="st2" d="M43.8,56.1h2l-2.5,7.4h-2l-1.4-5l-1.4,5h-2L34,56.1h2.1l1.5,5.4l1.5-5.4h1.9l1.5,5.4
			L43.8,56.1z"/>
		<path id="XMLID_28_" class="st2" d="M51.9,56.5c0.6,0.3,1.1,0.8,1.4,1.4c0.3,0.6,0.5,1.2,0.5,1.9c0,0.7-0.2,1.4-0.5,2
			c-0.3,0.6-0.8,1-1.4,1.4c-0.6,0.3-1.3,0.5-2,0.5c-0.8,0-1.4-0.2-2-0.5c-0.6-0.3-1.1-0.8-1.4-1.4c-0.3-0.6-0.5-1.2-0.5-2
			c0-0.7,0.2-1.4,0.5-1.9c0.3-0.6,0.8-1,1.4-1.4c0.6-0.3,1.3-0.5,2-0.5C50.6,56,51.3,56.1,51.9,56.5z M48.8,57.9
			c-0.3,0.2-0.6,0.5-0.7,0.8c-0.2,0.3-0.3,0.7-0.3,1.1c0,0.4,0.1,0.8,0.3,1.1c0.2,0.3,0.4,0.6,0.7,0.8c0.3,0.2,0.6,0.3,1,0.3
			c0.4,0,0.7-0.1,1-0.3c0.3-0.2,0.5-0.5,0.7-0.8c0.2-0.3,0.3-0.7,0.3-1.1c0-0.4-0.1-0.8-0.3-1.1c-0.2-0.3-0.4-0.6-0.7-0.8
			c-0.3-0.2-0.6-0.3-1-0.3C49.5,57.6,49.1,57.7,48.8,57.9z"/>
		<path id="XMLID_31_" class="st2" d="M59.2,63.5l-1.1-2h0h-1.4v2h-1.9v-7.4h3.3c1,0,1.7,0.2,2.3,0.7c0.5,0.5,0.8,1.1,0.8,1.9
			c0,0.6-0.1,1-0.3,1.4c-0.2,0.4-0.6,0.7-1,0.9l1.5,2.4H59.2z M56.7,59.9h1.4c0.4,0,0.7-0.1,0.9-0.3c0.2-0.2,0.3-0.5,0.3-0.9
			c0-0.4-0.1-0.6-0.3-0.8c-0.2-0.2-0.5-0.3-0.9-0.3h-1.4V59.9z"/>
		<path id="XMLID_34_" class="st2" d="M69.5,63.5h-2.3l-1.9-2.9l-0.9,1v1.8h-1.9v-7.4h1.9v3.2l2.8-3.2h2.2l-2.7,3L69.5,63.5z"/>
		<path id="XMLID_36_" class="st5" d="M72.6,56.1h1.9v5.7h3.1v1.6h-5V56.1z"/>
		<path id="XMLID_38_" class="st5" d="M78.5,56.1h1.9v7.4h-1.9V56.1z"/>
		<path id="XMLID_43_" class="st5" d="M81.9,56.1h5.5l0,1.5h-3.6v1.6h3.3v1.5h-3.3v2.7h-1.9V56.1z"/>
		<path id="XMLID_45_" class="st5" d="M88.2,56.1h5.8v1.5h-3.9V59h3.5v1.5l-3.5,0v1.4h4v1.5h-5.9V56.1z"/>
		<path id="XMLID_47_" class="st2" d="M96.6,62c0.2,0.2,0.3,0.4,0.3,0.7s-0.1,0.5-0.3,0.7c-0.2,0.2-0.4,0.3-0.7,0.3
			c-0.3,0-0.5-0.1-0.6-0.3c-0.2-0.2-0.3-0.4-0.3-0.7s0.1-0.5,0.2-0.7c0.2-0.2,0.4-0.3,0.6-0.3S96.4,61.8,96.6,62z"/>
	</g>
	<g id="XMLID_40_">
		<path id="XMLID_54_" class="st6" d="M36.1,52.5c-0.1,0.1-0.2,0.1-0.4,0.2c-0.1,0-0.3,0.1-0.4,0.1c-0.3,0-0.5-0.1-0.7-0.3
			c-0.2-0.2-0.3-0.4-0.3-0.7v-1.3h-0.4v-0.7h0.4v-0.9h1v0.9H36v0.7h-0.8v1.2c0,0.2,0.1,0.3,0.3,0.3c0.1,0,0.2,0,0.4-0.1L36.1,52.5z"
			/>
		<path id="XMLID_52_" class="st6" d="M39.5,49.9c0.2,0.2,0.3,0.5,0.3,0.9v1.9h-1V51c0-0.2,0-0.3-0.1-0.4c-0.1-0.1-0.2-0.2-0.4-0.2
			c-0.2,0-0.3,0.1-0.4,0.2c-0.1,0.1-0.2,0.3-0.2,0.5v1.5h-1v-4.2h1v1.6c0.1-0.2,0.3-0.3,0.4-0.4c0.2-0.1,0.4-0.1,0.6-0.1
			C39,49.6,39.3,49.7,39.5,49.9z"/>
		<path id="XMLID_49_" class="st6" d="M42.8,49.9c0.2,0.2,0.4,0.5,0.4,0.8v2h-1v-0.3c-0.2,0.3-0.5,0.4-0.9,0.4
			c-0.3,0-0.6-0.1-0.8-0.3c-0.2-0.2-0.3-0.4-0.3-0.7c0-0.3,0.1-0.5,0.3-0.7c0.2-0.2,0.5-0.2,0.9-0.3h0.8v0c0-0.1-0.1-0.3-0.2-0.3
			c-0.1-0.1-0.2-0.1-0.4-0.1c-0.1,0-0.3,0-0.4,0.1c-0.2,0-0.3,0.1-0.5,0.2l-0.3-0.7c0.3-0.1,0.5-0.2,0.7-0.3
			c0.2-0.1,0.5-0.1,0.7-0.1C42.3,49.6,42.6,49.7,42.8,49.9z M42,51.9c0.1-0.1,0.2-0.2,0.2-0.3v-0.3h-0.6c-0.3,0-0.4,0.1-0.4,0.3
			c0,0.1,0,0.2,0.1,0.3s0.2,0.1,0.3,0.1C41.7,52,41.9,52,42,51.9z"/>
		<path id="XMLID_41_" class="st6" d="M45.9,52.5c-0.1,0.1-0.2,0.1-0.4,0.2c-0.1,0-0.3,0.1-0.4,0.1c-0.3,0-0.5-0.1-0.7-0.3
			C44.1,52.3,44,52,44,51.7v-1.3h-0.4v-0.7H44v-0.9h1v0.9h0.8v0.7H45v1.2c0,0.2,0.1,0.3,0.3,0.3c0.1,0,0.2,0,0.4-0.1L45.9,52.5z"/>
	</g>
</g>
</svg>
