<?xml version="1.0" encoding="utf-8"?>
<!-- Generator: Adobe Illustrator 19.0.0, SVG Export Plug-In . SVG Version: 6.00 Build 0)  -->
<svg version="1.1" id="Layer_1" xmlns="http://www.w3.org/2000/svg" xmlns:xlink="http://www.w3.org/1999/xlink" x="0px" y="0px"
	 viewBox="0 0 100 100" style="enable-background:new 0 0 100 100;" xml:space="preserve">
<style type="text/css">
	.st0{fill:#1B0F28;}
	.st1{fill:#FFCB39;}
	.st2{fill:#1C1029;}
</style>
<g id="XMLID_1_">
	<g id="XMLID_3_">
		<path id="XMLID_25_" class="st0" d="M20.6,50.2h2.7l-3.4,10.1h-2.7l-1.9-6.9l-2,6.9h-2.7L7.2,50.2H10l2,7.4l2-7.4h2.6l2,7.4
			L20.6,50.2z"/>
		<path id="XMLID_27_" class="st0" d="M31.8,50.7c0.8,0.5,1.5,1.1,2,1.9c0.5,0.8,0.7,1.7,0.7,2.7c0,1-0.2,1.9-0.7,2.7
			s-1.1,1.4-2,1.9c-0.8,0.5-1.8,0.7-2.8,0.7c-1,0-2-0.2-2.8-0.7c-0.8-0.5-1.5-1.1-2-1.9c-0.5-0.8-0.7-1.7-0.7-2.7
			c0-1,0.2-1.9,0.7-2.7c0.5-0.8,1.1-1.4,2-1.9C27,50.2,28,50,29,50C30,50,30.9,50.2,31.8,50.7z M27.6,52.6c-0.4,0.3-0.8,0.6-1,1.1
			c-0.3,0.5-0.4,1-0.4,1.5c0,0.6,0.1,1.1,0.4,1.5c0.3,0.5,0.6,0.8,1,1.1s0.9,0.4,1.4,0.4c0.5,0,1-0.1,1.4-0.4c0.4-0.3,0.7-0.6,1-1.1
			c0.2-0.5,0.4-1,0.4-1.5c0-0.5-0.1-1.1-0.4-1.5c-0.2-0.5-0.6-0.8-1-1.1c-0.4-0.3-0.9-0.4-1.4-0.4C28.5,52.3,28,52.4,27.6,52.6z"/>
		<path id="XMLID_30_" class="st0" d="M41.9,60.3l-1.5-2.8h-0.1h-1.9v2.8h-2.6V50.2h4.6c1.3,0,2.4,0.3,3.1,0.9
			c0.7,0.6,1.1,1.5,1.1,2.6c0,0.8-0.2,1.4-0.5,2c-0.3,0.6-0.8,1-1.3,1.3l2.1,3.3H41.9z M38.4,55.4h1.9c0.5,0,1-0.1,1.3-0.4
			c0.3-0.3,0.4-0.7,0.4-1.2c0-0.5-0.1-0.9-0.4-1.1c-0.3-0.3-0.7-0.4-1.3-0.4h-1.9V55.4z"/>
		<path id="XMLID_33_" class="st0" d="M56,60.3h-3.2l-2.7-3.9l-1.3,1.4v2.5h-2.6V50.2h2.6v4.4l3.8-4.4h3.1L52,54.4L56,60.3z"/>
		<path id="XMLID_35_" class="st1" d="M60.3,50.2h2.6v7.9h4.3v2.3h-6.9V50.2z"/>
		<path id="XMLID_38_" class="st1" d="M68.4,50.2h2.6v10.1h-2.6V50.2z"/>
		<path id="XMLID_43_" class="st1" d="M73.1,50.2h7.6l0,2.1h-4.9v2.3h4.5v2.1h-4.5v3.7h-2.6V50.2z"/>
		<path id="XMLID_45_" class="st1" d="M81.8,50.2h8v2.1h-5.4v1.9h4.8v2.1l-4.8,0v1.9H90v2.1h-8.1V50.2z"/>
		<path id="XMLID_47_" class="st0" d="M93.3,58.3c0.2,0.2,0.3,0.5,0.3,0.9s-0.1,0.7-0.3,0.9c-0.2,0.2-0.5,0.4-0.9,0.4
			c-0.4,0-0.7-0.1-0.9-0.4c-0.2-0.2-0.3-0.5-0.3-0.9s0.1-0.7,0.3-0.9c0.2-0.2,0.5-0.3,0.9-0.3S93,58,93.3,58.3z"/>
	</g>
	<g id="XMLID_2_">
		<path id="XMLID_4_" class="st2" d="M10.7,45.6c-0.2,0.1-0.3,0.2-0.6,0.2c-0.2,0.1-0.4,0.1-0.6,0.1c-0.4,0-0.8-0.1-1-0.4
			c-0.3-0.2-0.4-0.6-0.4-1v-1.9H7.5v-0.9h0.6v-1.2h1.4v1.2h1.1v0.9H9.5v1.6c0,0.3,0.1,0.5,0.4,0.5c0.2,0,0.3,0,0.6-0.1L10.7,45.6z"
			/>
		<path id="XMLID_6_" class="st2" d="M15.4,41.9c0.3,0.3,0.4,0.7,0.4,1.2v2.7h-1.4v-2.3c0-0.2-0.1-0.4-0.2-0.6s-0.3-0.2-0.5-0.2
			c-0.3,0-0.5,0.1-0.6,0.3c-0.2,0.2-0.2,0.4-0.2,0.7v2.1h-1.4v-5.9h1.4v2.3c0.2-0.3,0.4-0.4,0.6-0.6s0.5-0.2,0.8-0.2
			C14.7,41.4,15.1,41.6,15.4,41.9z"/>
		<path id="XMLID_8_" class="st2" d="M20.1,41.8c0.3,0.3,0.5,0.7,0.5,1.2v2.8h-1.4v-0.5c-0.3,0.4-0.7,0.6-1.3,0.6
			c-0.5,0-0.8-0.1-1.1-0.4s-0.4-0.6-0.4-1c0-0.4,0.1-0.7,0.4-1c0.3-0.2,0.7-0.3,1.2-0.4h1.1v0c0-0.2-0.1-0.4-0.2-0.5
			c-0.1-0.1-0.3-0.2-0.6-0.2c-0.2,0-0.4,0-0.6,0.1c-0.2,0.1-0.5,0.1-0.7,0.3l-0.4-1c0.4-0.2,0.7-0.3,1-0.4c0.3-0.1,0.7-0.1,1-0.1
			C19.3,41.4,19.8,41.5,20.1,41.8z M18.9,44.7c0.2-0.1,0.3-0.2,0.3-0.4V44h-0.8c-0.4,0-0.6,0.1-0.6,0.4c0,0.1,0.1,0.3,0.2,0.4
			s0.2,0.1,0.4,0.1C18.6,44.9,18.8,44.8,18.9,44.7z"/>
		<path id="XMLID_11_" class="st2" d="M24.4,45.6c-0.2,0.1-0.3,0.2-0.6,0.2c-0.2,0.1-0.4,0.1-0.6,0.1c-0.4,0-0.8-0.1-1-0.4
			c-0.3-0.2-0.4-0.6-0.4-1v-1.9h-0.6v-0.9h0.6v-1.2h1.4v1.2h1.1v0.9h-1.1v1.6c0,0.3,0.1,0.5,0.4,0.5c0.2,0,0.3,0,0.6-0.1L24.4,45.6z
			"/>
	</g>
</g>
</svg>
