<?xml version="1.0" encoding="utf-8"?>
<!-- Generator: Adobe Illustrator 19.0.0, SVG Export Plug-In . SVG Version: 6.00 Build 0)  -->
<svg version="1.1" id="Layer_1" xmlns="http://www.w3.org/2000/svg" xmlns:xlink="http://www.w3.org/1999/xlink" x="0px" y="0px"
	 viewBox="0 0 100 100" style="enable-background:new 0 0 100 100;" xml:space="preserve">
<style type="text/css">
	.st0{fill:#FFCB39;stroke:#FFCC39;stroke-width:3;stroke-miterlimit:10;}
	.st1{fill:#F0F1F3;}
	.st2{fill:#0A0908;}
	.st3{fill:#FFFFFF;}
	.st4{fill:#FFCC39;}
</style>
<g id="XMLID_1_">
	<rect id="XMLID_158_" x="6.4" y="39.2" class="st0" width="23.9" height="23.9"/>
	<polygon id="XMLID_157_" class="st1" points="15,54.5 15,51.2 6.4,51.2 6.4,63.1 18.3,63.1 18.3,54.5 	"/>
	<polygon id="XMLID_156_" class="st1" points="18.3,39.2 18.3,47.8 21.6,47.8 21.6,51.2 30.2,51.2 30.2,39.2 	"/>
	<polygon id="XMLID_155_" class="st1" points="21.6,51.2 21.6,54.5 18.3,54.5 18.3,63.1 30.2,63.1 30.2,51.2 	"/>
	<polygon id="XMLID_154_" class="st1" points="15,47.8 18.3,47.8 18.3,39.2 6.4,39.2 6.4,51.2 15,51.2 	"/>
	<g id="XMLID_151_">
		<path id="XMLID_152_" class="st2" d="M10.9,43.2h2.4v0.6h-0.8V46h-0.7v-2.2h-0.8V43.2z"/>
	</g>
	<g id="XMLID_148_">
		<path id="XMLID_149_" class="st2" d="M24.1,56.2h0.7v2.1H26V59h-1.9V56.2z"/>
	</g>
	<g id="XMLID_50_">
		<path id="XMLID_78_" class="st2" d="M19.8,50h0.7l-0.9,2.8h-0.7l-0.5-1.9l-0.5,1.9h-0.7L16.1,50h0.8l0.5,2l0.5-2h0.7l0.5,2
			L19.8,50z"/>
	</g>
	<path id="XMLID_99_" class="st3" d="M44.4,58.5h1.9l-2.4,7.2H42l-1.4-4.9l-1.4,4.9h-1.9l-2.4-7.2h2l1.4,5.2l1.4-5.2h1.8l1.4,5.2
		L44.4,58.5z"/>
	<path id="XMLID_96_" class="st3" d="M52.3,58.9c0.6,0.3,1.1,0.8,1.4,1.3c0.3,0.6,0.5,1.2,0.5,1.9c0,0.7-0.2,1.3-0.5,1.9
		c-0.3,0.6-0.8,1-1.4,1.3c-0.6,0.3-1.3,0.5-2,0.5c-0.7,0-1.4-0.2-2-0.5C47.8,65,47.3,64.6,47,64c-0.3-0.6-0.5-1.2-0.5-1.9
		c0-0.7,0.2-1.3,0.5-1.9s0.8-1,1.4-1.3c0.6-0.3,1.3-0.5,2-0.5C51.1,58.4,51.7,58.6,52.3,58.9z M49.4,60.3c-0.3,0.2-0.5,0.4-0.7,0.8
		c-0.2,0.3-0.3,0.7-0.3,1.1c0,0.4,0.1,0.8,0.3,1.1c0.2,0.3,0.4,0.6,0.7,0.8c0.3,0.2,0.6,0.3,1,0.3c0.4,0,0.7-0.1,1-0.3
		c0.3-0.2,0.5-0.4,0.7-0.8c0.2-0.3,0.3-0.7,0.3-1.1c0-0.4-0.1-0.7-0.3-1.1c-0.2-0.3-0.4-0.6-0.7-0.8c-0.3-0.2-0.6-0.3-1-0.3
		C50,60,49.7,60.1,49.4,60.3z"/>
	<path id="XMLID_93_" class="st3" d="M59.4,65.7l-1-2h0H57v2h-1.9v-7.2h3.2c0.9,0,1.7,0.2,2.2,0.7c0.5,0.4,0.8,1.1,0.8,1.9
		c0,0.5-0.1,1-0.3,1.4s-0.5,0.7-1,0.9l1.5,2.3H59.4z M57,62.2h1.4c0.4,0,0.7-0.1,0.9-0.3c0.2-0.2,0.3-0.5,0.3-0.8
		c0-0.3-0.1-0.6-0.3-0.8C59,60.1,58.7,60,58.4,60H57V62.2z"/>
	<path id="XMLID_91_" class="st3" d="M69.4,65.7h-2.2l-1.9-2.8l-0.9,1v1.8h-1.9v-7.2h1.9v3.1l2.7-3.1h2.2l-2.7,3L69.4,65.7z"/>
	<path id="XMLID_89_" class="st4" d="M72.5,58.5h1.9v5.6h3v1.6h-4.9V58.5z"/>
	<path id="XMLID_87_" class="st4" d="M78.2,58.5h1.9v7.2h-1.9V58.5z"/>
	<path id="XMLID_85_" class="st4" d="M81.5,58.5h5.4l0,1.5h-3.5v1.6h3.2v1.5h-3.2v2.6h-1.9V58.5z"/>
	<path id="XMLID_83_" class="st4" d="M87.7,58.5h5.7V60h-3.8v1.3H93v1.5l-3.4,0v1.4h3.9v1.5h-5.8V58.5z"/>
	<path id="XMLID_81_" class="st3" d="M95.8,64.2c0.2,0.2,0.2,0.4,0.2,0.6s-0.1,0.5-0.2,0.6c-0.2,0.2-0.4,0.3-0.6,0.3
		c-0.3,0-0.5-0.1-0.6-0.3c-0.2-0.2-0.2-0.4-0.2-0.6s0.1-0.5,0.2-0.6c0.2-0.2,0.4-0.2,0.6-0.2S95.6,64.1,95.8,64.2z"/>
	<g id="XMLID_2_">
		<path id="XMLID_4_" class="st3" d="M37,55.2c-0.1,0.1-0.2,0.1-0.4,0.1c-0.1,0-0.3,0.1-0.4,0.1c-0.3,0-0.5-0.1-0.7-0.3
			c-0.2-0.2-0.3-0.4-0.3-0.7v-1.3h-0.4v-0.6h0.4v-0.8h1v0.8H37v0.6h-0.8v1.1c0,0.2,0.1,0.3,0.3,0.3c0.1,0,0.2,0,0.4-0.1L37,55.2z"/>
		<path id="XMLID_6_" class="st3" d="M40.3,52.7c0.2,0.2,0.3,0.5,0.3,0.8v1.9h-1v-1.6c0-0.2,0-0.3-0.1-0.4c-0.1-0.1-0.2-0.1-0.4-0.1
			c-0.2,0-0.3,0.1-0.4,0.2c-0.1,0.1-0.2,0.3-0.2,0.5v1.5h-1v-4.1h1v1.6c0.1-0.2,0.2-0.3,0.4-0.4c0.2-0.1,0.4-0.1,0.6-0.1
			C39.8,52.4,40.1,52.5,40.3,52.7z"/>
		<path id="XMLID_8_" class="st3" d="M43.5,52.7c0.2,0.2,0.3,0.5,0.3,0.8v1.9h-1V55c-0.2,0.3-0.5,0.4-0.9,0.4
			c-0.3,0-0.6-0.1-0.7-0.3C41.1,55,41,54.8,41,54.5c0-0.3,0.1-0.5,0.3-0.7c0.2-0.2,0.5-0.2,0.8-0.2h0.8v0c0-0.1,0-0.3-0.1-0.3
			c-0.1-0.1-0.2-0.1-0.4-0.1c-0.1,0-0.3,0-0.4,0.1c-0.2,0-0.3,0.1-0.5,0.2l-0.3-0.7c0.2-0.1,0.5-0.2,0.7-0.2
			c0.2-0.1,0.5-0.1,0.7-0.1C43,52.4,43.3,52.5,43.5,52.7z M42.7,54.7c0.1-0.1,0.2-0.2,0.2-0.3v-0.3h-0.6c-0.3,0-0.4,0.1-0.4,0.3
			c0,0.1,0,0.2,0.1,0.2c0.1,0.1,0.2,0.1,0.3,0.1C42.4,54.8,42.6,54.7,42.7,54.7z"/>
		<path id="XMLID_11_" class="st3" d="M46.5,55.2c-0.1,0.1-0.2,0.1-0.4,0.1c-0.1,0-0.3,0.1-0.4,0.1c-0.3,0-0.5-0.1-0.7-0.3
			c-0.2-0.2-0.3-0.4-0.3-0.7v-1.3h-0.4v-0.6h0.4v-0.8h1v0.8h0.8v0.6h-0.8v1.1c0,0.2,0.1,0.3,0.3,0.3c0.1,0,0.2,0,0.4-0.1L46.5,55.2z
			"/>
	</g>
</g>
</svg>
